<svg xmlns="http://www.w3.org/2000/svg" width="100" height="100" viewBox="0 0 100 100"><path stroke-width="4.5" stroke-miterlimit="10" d="M50.928 52.239l28.498-.106c.511-.003.925-.419.924-.933-.003-.511-.417-.928-.933-.924l-28.488.107-.009-28.489c.001-.514-.418-.927-.928-.928-.515 0-.929.416-.929.928l.01 28.497-28.498.106c-.512.004-.927.421-.924.934.001.255.105.486.274.654.169.168.401.273.66.27l28.489-.108.009 28.489c-.002.257.104.491.272.658.169.168.399.27.655.271.515 0 .929-.416.929-.928l-.01-28.497z" stroke="#fff"/></svg>